<svg xmlns="http://www.w3.org/2000/svg" xmlns:xlink="http://www.w3.org/1999/xlink" version="1.1" x="0px" y="0px" viewBox="0 0 100 100" enable-background="new 0 0 100 100" xml:space="preserve">
	<g display="none">
		<path display="inline" d="M50.002,32.008c9.916,0,17.989,8.07,17.989,17.992c0,9.92-8.073,17.99-17.989,17.99   c-9.921,0-17.995-8.07-17.995-17.99C32.007,40.078,40.081,32.008,50.002,32.008 M50.002,14.018   C30.13,14.018,14.018,30.127,14.018,50S30.13,85.982,50.002,85.982c19.873,0,35.98-16.109,35.98-35.982   S69.875,14.018,50.002,14.018L50.002,14.018z"></path>
	</g>
	<g display="none">
		<path display="inline" d="M50.463,22.014c-19.869,0-35.984,11.045-35.984,24.674c0,6.475,3.667,12.341,9.612,16.748l-4.027,14.551   l20.54-7.582c3.132,0.615,6.438,0.968,9.859,0.968c19.873,0,35.98-11.05,35.98-24.684C86.443,33.059,70.336,22.014,50.463,22.014z"></path>
	</g>
	<g display="none">
		<rect x="15.209" y="32.137" transform="matrix(-0.7071 -0.7071 0.7071 -0.7071 47.1317 113.7827)" display="inline" width="63.844" height="29.986"></rect>
		<polygon display="inline" points="64.752,85.957 64.842,86.045 85.982,85.98 86.045,64.842 85.957,64.756  "></polygon>
	</g>
	<path style="fill:white;" d="M93.921,62.336H80.179V51.807c0-2.063-1.471-3.742-3.271-3.742H51.915V37.665h13.746c3.166,0,5.746-2.578,5.746-5.745  V14.305c0-3.173-2.578-5.75-5.746-5.75H34.337c-3.169,0-5.746,2.577-5.746,5.75v17.614c0,3.167,2.577,5.745,5.746,5.745h13.746v10.4  H23.311c-1.925,0-3.488,1.684-3.488,3.742v10.528H6.077c-3.169,0-5.746,2.578-5.746,5.75V85.7c0,3.166,2.576,5.743,5.746,5.743  h31.322c3.167,0,5.748-2.577,5.748-5.743V68.086c0-3.173-2.579-5.75-5.748-5.75H23.325l-0.014-10.438h53.034v10.438H62.599  c-3.17,0-5.746,2.577-5.746,5.75v17.615c0,3.166,2.576,5.744,5.746,5.744h31.322c3.166,0,5.748-2.578,5.748-5.744V68.086  C99.669,64.913,97.091,62.336,93.921,62.336z"></path>
</svg>