<?xml version="1.0" encoding="UTF-8"?>
<!DOCTYPE svg PUBLIC "-//W3C//DTD SVG 1.1//EN" "http://www.w3.org/Graphics/SVG/1.1/DTD/svg11.dtd">
<!-- Creator: CorelDRAW X6 -->
<svg xmlns="http://www.w3.org/2000/svg" xml:space="preserve" width="3.88889in" height="3.88889in" version="1.1" style="shape-rendering:geometricPrecision; text-rendering:geometricPrecision; image-rendering:optimizeQuality; fill-rule:evenodd; clip-rule:evenodd"
viewBox="0 0 3889 3889"
 xmlns:xlink="http://www.w3.org/1999/xlink">
 <defs>
  <style type="text/css">
   <![CDATA[
    .str0 {stroke:#a2a2a2;stroke-width:0}
    .fil0 {fill:none;fill-rule:nonzero}
    .fil1 {fill:#a2a2a2;fill-rule:nonzero}
   ]]>
  </style>
 </defs>
 <g id="Layer_x0020_1">
  <metadata id="CorelCorpID_0Corel-Layer"/>
  <polygon class="fil0 str0" points="7,3881 3882,3881 3882,6 7,6 "/>
  <path class="fil1" d="M1574 1690l-67 0c0,0 -4,0 -4,4l0 215 -202 0 0 -215c0,-4 -4,-4 -4,-4l-66 0c0,0 -4,0 -4,4l0 503c0,0 0,4 4,4l66 0c0,0 4,0 4,-4l0 -220 202 0 0 220c0,0 0,4 4,4l66 0c4,0 4,-4 4,-4l0 -503c0,-4 -4,-4 -4,-4z"/>
  <path class="fil0 str0" d="M1574 1690l-67 0c0,0 -4,0 -4,4l0 215 -202 0 0 -215c0,-4 -4,-4 -4,-4l-66 0c0,0 -4,0 -4,4l0 503c0,0 0,4 4,4l66 0c0,0 4,0 4,-4l0 -220 202 0 0 220c0,0 0,4 4,4l66 0c4,0 4,-4 4,-4l0 -503c0,-4 -4,-4 -4,-4z"/>
  <path class="fil1" d="M1824 2125c-21,13 -41,22 -71,22 -41,0 -51,-24 -51,-49 0,-35 19,-47 52,-51l70 -8 0 86zm-60 -265c-37,0 -77,7 -103,17 0,0 -6,2 -6,8l0 53c0,6 5,4 5,4 25,-9 58,-18 99,-18 49,0 65,13 65,47l0 17 -74 6c-75,6 -121,37 -121,108 0,53 29,106 114,106 36,0 74,-13 100,-35l10 23c0,0 1,4 5,4l36 0c4,0 4,-4 4,-4l0 -218c0,-70 -25,-118 -134,-118z"/>
  <path class="fil0 str0" d="M1824 2125c-21,13 -41,22 -71,22 -41,0 -51,-24 -51,-49 0,-35 19,-47 52,-51l70 -8 0 86zm-60 -265c-37,0 -77,7 -103,17 0,0 -6,2 -6,8l0 53c0,6 5,4 5,4 25,-9 58,-18 99,-18 49,0 65,13 65,47l0 17 -74 6c-75,6 -121,37 -121,108 0,53 29,106 114,106 36,0 74,-13 100,-35l10 23c0,0 1,4 5,4l36 0c4,0 4,-4 4,-4l0 -218c0,-70 -25,-118 -134,-118z"/>
  <path class="fil1" d="M2942 2125c-21,13 -41,22 -71,22 -40,0 -51,-24 -51,-49 0,-35 19,-47 52,-51l70 -8 0 86zm-60 -265c-37,0 -77,7 -103,17 0,0 -6,2 -6,8l0 53c0,6 5,4 5,4 25,-9 58,-18 99,-18 49,0 65,13 65,47l0 17 -74 6c-75,6 -121,37 -121,108 0,53 29,106 114,106 37,0 74,-13 100,-35l10 23c0,0 1,4 5,4l36 0c4,0 4,-4 4,-4l0 -218c0,-70 -25,-118 -134,-118z"/>
  <path class="fil0 str0" d="M2942 2125c-21,13 -41,22 -71,22 -40,0 -51,-24 -51,-49 0,-35 19,-47 52,-51l70 -8 0 86zm-60 -265c-37,0 -77,7 -103,17 0,0 -6,2 -6,8l0 53c0,6 5,4 5,4 25,-9 58,-18 99,-18 49,0 65,13 65,47l0 17 -74 6c-75,6 -121,37 -121,108 0,53 29,106 114,106 37,0 74,-13 100,-35l10 23c0,0 1,4 5,4l36 0c4,0 4,-4 4,-4l0 -218c0,-70 -25,-118 -134,-118z"/>
  <path class="fil1" d="M2086 2315c-61,0 -88,-15 -88,-52 0,-32 31,-47 64,-53l94 12c27,3 38,13 38,36 0,40 -51,57 -109,57zm0 -396c56,0 68,29 68,67 0,38 -13,67 -68,67 -56,0 -68,-29 -68,-67 0,-38 13,-67 68,-67zm92 244l-120 -15c-14,-2 -20,-8 -20,-19 0,-7 4,-14 9,-19 11,2 25,3 38,3 102,0 139,-50 139,-126 0,-21 -3,-40 -10,-58l43 -12c0,0 4,-1 4,-5l0 -39c0,-4 -5,-4 -5,-4l-98 0c-10,0 -19,-2 -19,-2 -17,-3 -34,-6 -54,-6 -102,0 -139,50 -139,126 0,48 15,87 53,108 -15,12 -30,29 -30,54 0,18 9,36 26,46l0 1c-35,11 -69,37 -69,82 0,68 64,97 153,97 96,0 186,-33 186,-118 0,-55 -23,-85 -89,-93z"/>
  <path class="fil0 str0" d="M2086 2315c-61,0 -88,-15 -88,-52 0,-32 31,-47 64,-53l94 12c27,3 38,13 38,36 0,40 -51,57 -109,57zm0 -396c56,0 68,29 68,67 0,38 -13,67 -68,67 -56,0 -68,-29 -68,-67 0,-38 13,-67 68,-67zm92 244l-120 -15c-14,-2 -20,-8 -20,-19 0,-7 4,-14 9,-19 11,2 25,3 38,3 102,0 139,-50 139,-126 0,-21 -3,-40 -10,-58l43 -12c0,0 4,-1 4,-5l0 -39c0,-4 -5,-4 -5,-4l-98 0c-10,0 -19,-2 -19,-2 -17,-3 -34,-6 -54,-6 -102,0 -139,50 -139,126 0,48 15,87 53,108 -15,12 -30,29 -30,54 0,18 9,36 26,46l0 1c-35,11 -69,37 -69,82 0,68 64,97 153,97 96,0 186,-33 186,-118 0,-55 -23,-85 -89,-93z"/>
  <path class="fil1" d="M2356 2010c3,-50 18,-85 72,-85 58,0 60,40 60,85l-133 0zm72 -149c-108,0 -147,67 -147,174 0,108 40,174 151,174 35,0 76,-4 113,-19 0,0 4,-1 4,-6l0 -55c0,-4 -4,-2 -4,-2 -28,12 -61,18 -101,18 -68,0 -86,-33 -87,-82l202 0c5,0 5,-4 5,-4 1,-9 1,-19 1,-28 0,-92 -19,-169 -135,-169z"/>
  <path class="fil0 str0" d="M2356 2010c3,-50 18,-85 72,-85 58,0 60,40 60,85l-133 0zm72 -149c-108,0 -147,67 -147,174 0,108 40,174 151,174 35,0 76,-4 113,-19 0,0 4,-1 4,-6l0 -55c0,-4 -4,-2 -4,-2 -28,12 -61,18 -101,18 -68,0 -86,-33 -87,-82l202 0c5,0 5,-4 5,-4 1,-9 1,-19 1,-28 0,-92 -19,-169 -135,-169z"/>
  <path class="fil1" d="M2707 2143c-18,-1 -24,-8 -24,-25l0 -424c0,-4 -4,-4 -4,-4l-66 0c0,0 -4,0 -4,4l0 425c0,57 27,86 88,86 4,0 8,0 10,-1 0,0 4,0 4,-4l0 -53c0,-4 -4,-4 -4,-4z"/>
  <path class="fil0 str0" d="M2707 2143c-18,-1 -24,-8 -24,-25l0 -424c0,-4 -4,-4 -4,-4l-66 0c0,0 -4,0 -4,4l0 425c0,57 27,86 88,86 4,0 8,0 10,-1 0,0 4,0 4,-4l0 -53c0,-4 -4,-4 -4,-4z"/>
  <path class="fil1" d="M3244 1861c-36,0 -74,11 -108,35l-10 -23c0,0 -1,-4 -6,-4l-36 0c0,0 -4,0 -4,4l0 324c0,4 4,4 4,4l66 0c0,0 4,0 4,-4l0 -254c18,-10 42,-19 76,-19 35,0 52,15 52,49l0 223c0,4 4,4 4,4l67 0c0,0 4,0 4,-4l0 -230c0,-64 -30,-106 -114,-106z"/>
  <path class="fil0 str0" d="M3244 1861c-36,0 -74,11 -108,35l-10 -23c0,0 -1,-4 -6,-4l-36 0c0,0 -4,0 -4,4l0 324c0,4 4,4 4,4l66 0c0,0 4,0 4,-4l0 -254c18,-10 42,-19 76,-19 35,0 52,15 52,49l0 223c0,4 4,4 4,4l67 0c0,0 4,0 4,-4l0 -230c0,-64 -30,-106 -114,-106z"/>
  <path class="fil1" d="M3635 2126c-13,7 -37,19 -72,19 -65,0 -75,-49 -75,-111 0,-61 10,-111 75,-111 35,0 58,12 72,19l0 183zm70 -436l-66 0c0,0 -4,0 -4,4l0 193c-24,-15 -56,-26 -89,-26 -97,0 -133,66 -133,174 0,109 36,174 133,174 44,0 78,-13 108,-35l10 23c0,0 2,4 5,4l36 0c0,0 4,0 4,-4l0 -502c0,-4 -4,-4 -4,-4z"/>
  <path class="fil0 str0" d="M3635 2126c-13,7 -37,19 -72,19 -65,0 -75,-49 -75,-111 0,-61 10,-111 75,-111 35,0 58,12 72,19l0 183zm70 -436l-66 0c0,0 -4,0 -4,4l0 193c-24,-15 -56,-26 -89,-26 -97,0 -133,66 -133,174 0,109 36,174 133,174 44,0 78,-13 108,-35l10 23c0,0 2,4 5,4l36 0c0,0 4,0 4,-4l0 -502c0,-4 -4,-4 -4,-4z"/>
  <path class="fil1" d="M419 2215l0 0c-11,32 -22,64 -33,95 52,32 111,52 175,59 26,-78 58,-170 91,-266 -112,-1 -198,14 -233,112z"/>
  <path class="fil0 str0" d="M419 2215l0 0c-11,32 -22,64 -33,95 52,32 111,52 175,59 26,-78 58,-170 91,-266 -112,-1 -198,14 -233,112z"/>
  <path class="fil1" d="M465 1561c81,6 139,76 120,155 -16,69 -42,136 -64,204 -2,7 -30,85 -64,183 58,-82 131,-114 235,-121 52,-151 103,-300 139,-407 -65,-40 -142,-62 -223,-62 -76,0 -148,20 -210,55 21,-6 43,-8 67,-6z"/>
  <path class="fil0 str0" d="M465 1561c81,6 139,76 120,155 -16,69 -42,136 -64,204 -2,7 -30,85 -64,183 58,-82 131,-114 235,-121 52,-151 103,-300 139,-407 -65,-40 -142,-62 -223,-62 -76,0 -148,20 -210,55 21,-6 43,-8 67,-6z"/>
  <path class="fil1" d="M480 1666c11,-50 -30,-85 -81,-78 -31,4 -56,17 -79,37 -86,79 -141,192 -141,318 0,110 41,210 109,286 59,-171 129,-375 179,-520 5,-14 10,-29 13,-44z"/>
  <path class="fil0 str0" d="M480 1666c11,-50 -30,-85 -81,-78 -31,4 -56,17 -79,37 -86,79 -141,192 -141,318 0,110 41,210 109,286 59,-171 129,-375 179,-520 5,-14 10,-29 13,-44z"/>
  <path class="fil1" d="M882 2087c-36,15 -69,20 -106,21 -31,92 -62,182 -89,258 200,-37 351,-212 351,-423l0 -1c-41,64 -96,121 -157,145z"/>
  <path class="fil0 str0" d="M882 2087c-36,15 -69,20 -106,21 -31,92 -62,182 -89,258 200,-37 351,-212 351,-423l0 -1c-41,64 -96,121 -157,145z"/>
  <path class="fil1" d="M953 1963c30,-12 58,-32 84,-56 -8,-95 -47,-182 -106,-249 -27,78 -68,198 -112,326 49,1 89,-1 134,-20z"/>
  <path class="fil0 str0" d="M953 1963c30,-12 58,-32 84,-56 -8,-95 -47,-182 -106,-249 -27,78 -68,198 -112,326 49,1 89,-1 134,-20z"/>
 </g>
</svg>
