<?xml version="1.0" encoding="UTF-8"?>
<!DOCTYPE svg PUBLIC "-//W3C//DTD SVG 1.1//EN" "http://www.w3.org/Graphics/SVG/1.1/DTD/svg11.dtd">
<!-- Creator: CorelDRAW X6 -->
<svg xmlns="http://www.w3.org/2000/svg" xml:space="preserve" width="8.90278in" height="1.51389in" version="1.1" style="shape-rendering:geometricPrecision; text-rendering:geometricPrecision; image-rendering:optimizeQuality; fill-rule:evenodd; clip-rule:evenodd"
viewBox="0 0 8903 1514"
 xmlns:xlink="http://www.w3.org/1999/xlink">
 <defs>
  <style type="text/css">
   <![CDATA[
    .fil0 {fill:none}
    .fil1 {fill:#7c7c7c}
   ]]>
  </style>
 </defs>
 <g id="Layer_x0020_1">
  <metadata id="CorelCorpID_0Corel-Layer"/>
  <polygon class="fil0" points="3,1505 8894,1505 8894,5 3,5 "/>
  <polygon class="fil1" points="84,1445 1509,1445 1509,74 84,74 "/>
  <polygon class="fil1" points="2331,292 2558,292 2262,750 2590,1209 2339,1209 2043,766 2040,766 2040,1209 1813,1209 1813,292 2040,292 2040,740 2043,740 "/>
  <polygon class="fil1" points="2902,483 2902,648 3228,648 3228,838 2902,838 2902,1019 3254,1019 3254,1209 2675,1209 2675,292 3242,292 3242,483 "/>
  <polygon class="fil1" points="3364,292 3625,292 3924,888 3926,888 3926,292 4142,292 4142,1209 3880,1209 3570,590 3568,590 3567,1209 3364,1209 "/>
  <polygon class="fil1" points="4583,885 4585,885 4729,292 4908,292 5078,885 5081,885 5196,292 5410,292 5197,1209 4977,1209 4816,666 4814,666 4680,1209 4460,1209 4219,292 4437,292 "/>
  <path class="fil1" d="M6377 734c0,297 -201,506 -496,506 -294,0 -496,-209 -496,-506 0,-277 232,-472 496,-472 264,0 496,195 496,472zm-766 0c0,173 122,300 271,300 149,0 271,-127 271,-300 0,-139 -122,-265 -271,-265 -149,0 -271,127 -271,265z"/>
  <path class="fil1" d="M7167 1209l-251 0 -271 -410 -2 0 0 410 -204 0 0 -917 356 0c181,0 319,86 319,282 0,126 -59,236 -189,259l242 376zm-524 -506l23 0c78,0 223,16 223,-114 0,-130 -145,-103 -223,-103l-23 0 0 217z"/>
  <polygon class="fil1" points="7594,1209 7355,1209 7355,483 7158,483 7158,292 7756,292 7756,483 7594,483 "/>
  <polygon class="fil1" points="8376,635 8376,292 8603,292 8603,1209 8376,1209 8376,834 8078,834 8078,1209 7851,1209 7851,292 8078,292 8078,635 "/>
  <path class="fil0" d="M1163 575c0,-114 -52,-217 -133,-284l0 -128c-23,-9 -46,-17 -70,-23l0 105c-21,-10 -42,-19 -65,-25l0 -93c-23,-4 -47,-6 -70,-7l0 87c-10,-1 -21,-1 -31,-1 -11,0 -22,1 -33,2l0 -87c-24,1 -47,4 -70,8l0 93c-23,7 -44,15 -65,26l0 -104c-24,7 -48,15 -70,24l0 127c-80,68 -131,169 -131,283 0,113 51,215 131,283l0 488c23,9 46,17 70,24l0 -465c21,10 42,19 65,26l0 453c23,4 47,7 70,8l0 -448c11,1 22,2 33,2 11,0 21,-1 31,-1l0 448c24,-1 47,-3 70,-7l0 -454c23,-6 44,-15 65,-25l0 465c24,-6 48,-14 70,-23l0 -488c81,-68 133,-170 133,-284z"/>
  <path class="fil1" d="M793 878c167,0 303,-136 303,-303 0,-167 -136,-303 -303,-303 -167,0 -303,136 -303,303 0,167 136,303 303,303z"/>
  <path class="fil0" d="M793 851c153,0 276,-124 276,-276 0,-153 -124,-276 -276,-276 -153,0 -276,124 -276,276 0,153 124,276 276,276z"/>
  <polygon class="fil1" points="810,362 872,362 796,453 879,554 814,554 750,471 749,471 749,554 699,554 699,362 749,362 749,441 750,441 "/>
  <polygon class="fil1" points="729,716 729,716 766,592 806,592 840,716 841,716 874,592 926,592 868,784 817,784 786,672 786,672 751,784 701,784 646,592 699,592 "/>
 </g>
</svg>
