<?xml version="1.0" encoding="UTF-8"?>
<!DOCTYPE svg PUBLIC "-//W3C//DTD SVG 1.1//EN" "http://www.w3.org/Graphics/SVG/1.1/DTD/svg11.dtd">
<!-- Creator: CorelDRAW X6 -->
<svg xmlns="http://www.w3.org/2000/svg" xml:space="preserve" width="3.54331in" height="1.77165in" version="1.1" style="shape-rendering:geometricPrecision; text-rendering:geometricPrecision; image-rendering:optimizeQuality; fill-rule:evenodd; clip-rule:evenodd"
viewBox="0 0 3543 1772"
 xmlns:xlink="http://www.w3.org/1999/xlink">
 <defs>
  <style type="text/css">
   <![CDATA[
    .fil0 {fill:#7c7c7c;fill-rule:nonzero}
   ]]>
  </style>
 </defs>
 <g id="__x0023_Layer_x0020_1">
  <metadata id="CorelCorpID_0Corel-Layer"/>
  <path class="fil0" d="M570 599l-320 0 -160 277 160 277 320 0 160 -277 -160 -277zm-401 277l0 0 121 -209 173 0 -121 209 121 209 -173 0 -121 -209zm367 201l0 0 -116 -201 116 -201 116 201 -116 201zm665 -62l0 0 36 0 0 67 -183 0 0 -67 52 0 -115 -108 -34 -32 0 140 47 0 0 67 -174 0 0 -67 49 0 0 -295 -49 0 0 -68 174 0 0 68 -47 0 0 130 138 -130 -41 0 0 -68 174 0 0 68 -38 0 -151 142 162 153zm1714 0l0 0 45 0 0 67 -174 0 0 -61 46 0 -25 -67 -153 0 -25 67 46 0 0 61 -174 0 0 -67 45 0 124 -295 -47 0 0 -68 141 0 149 363zm-129 -122l0 0 -54 -147 -54 147 108 0zm-785 -174l0 0 48 0 0 221 -204 -289 -100 0 -19 0 0 68 47 0 0 295 -47 0 0 67 174 0 0 -67 -50 0 0 -221 205 289 72 0 0 -363 46 0 0 -68 -172 0 0 68zm1253 -68l0 0 0 68 48 0 0 221 -204 -289 -100 0 -19 0 0 68 47 0 0 295 -47 0 0 67 174 0 0 -67 -50 0 0 -221 205 289 72 0 0 -363 46 0 0 -68 -172 0zm-894 176l0 0c-72,-17 -78,-45 -78,-63 0,-18 6,-56 58,-56 36,0 51,24 56,39l0 20 73 0 0 -116 -65 0 0 22c-13,-16 -40,-31 -73,-31 -41,0 -130,33 -130,126 0,93 96,115 150,133 54,18 54,42 54,58 0,16 -8,61 -64,61 -41,0 -58,-33 -65,-50l0 -16 -73 0 0 127 65 0 0 -32c13,18 37,41 82,41 75,0 134,-58 134,-133 0,-75 -53,-111 -125,-128zm-653 36l0 0c0,124 -100,224 -224,224 -124,0 -224,-100 -224,-224 0,-124 100,-224 224,-224 124,0 224,100 224,224zm-81 0l0 0c0,-79 -64,-143 -143,-143 -79,0 -143,64 -143,143 0,79 64,143 143,143 79,0 143,-64 143,-143z"/>
 </g>
</svg>
