<svg xmlns="http://www.w3.org/2000/svg" xmlns:xlink="http://www.w3.org/1999/xlink" version="1.1" x="0px" y="0px" viewBox="0 0 100 100" enable-background="new 0 0 100 100" xml:space="preserve"><g><path  style="fill:white;" d="M6.2,56.7l7,0.1c0.9,4.8,2.7,9.4,5.4,13.6l-5,4.9c-1.2,1.2-1.3,3.1-0.1,4.4l5.9,6c1.2,1.2,3.1,1.3,4.4,0.1l5-4.9   c4.1,2.9,8.7,4.8,13.4,5.8l-0.1,7c0,1.7,1.3,3.1,3,3.1l8.4,0.1c1.7,0,3.1-1.3,3.1-3l0.1-7c4.8-0.9,9.4-2.7,13.6-5.4l4.9,5   c1.2,1.2,3.1,1.3,4.4,0.1l6-5.9c1.2-1.2,1.3-3.1,0.1-4.4l-4.9-5c2.9-4.1,4.8-8.7,5.8-13.4l7,0.1c1.7,0,3.1-1.3,3.1-3l0.1-8.4   c0-1.7-1.3-3.1-3-3.1l-7-0.1c-0.9-4.8-2.7-9.4-5.4-13.6l5-4.9c1.2-1.2,1.3-3.1,0.1-4.4l-5.9-6c-1.2-1.2-3.1-1.3-4.4-0.1l-5,4.9   c-4.1-2.9-8.7-4.8-13.4-5.8l0.1-7c0-1.7-1.3-3.1-3-3.1l-8.4-0.1c-1.7,0-3.1,1.3-3.1,3l-0.1,7c-4.8,0.9-9.4,2.7-13.6,5.4l-4.9-5   c-1.2-1.2-3.1-1.3-4.4-0.1l-6,5.9c-1.2,1.2-1.3,3.1-0.1,4.4l4.9,5c-2.9,4.1-4.8,8.7-5.8,13.4l-7-0.1c-1.7,0-3.1,1.3-3.1,3l-0.1,8.4   C3.1,55.2,4.5,56.6,6.2,56.7z M31.2,30.6C41.9,20.2,59,20.5,69.4,31.2C79.8,41.9,79.5,59,68.8,69.4C58.1,79.8,41,79.5,30.6,68.8   C20.2,58.1,20.5,41,31.2,30.6z M54.8,54.6L50,68.6l-4.8-14.1v-1.8c-6.4,0.1-8.2-2.7-8.2-2.7s3.6-0.1,3.4-9.6   c-0.2-9.6,4.2-11.2,5.8-11.8c4.8-1.8,7.2,1.1,7.2,1.1c5.6-0.5,7.1,5.6,6.4,12.5s3.1,8,3.1,8c-2.6,2.7-8.1,2.5-8.1,2.5v1.7h0   L54.8,54.6z M33.6,65.9c-0.3-0.3-0.5-0.6-0.7-0.8l0.3-1.6c0.3-1.7,1.4-3.2,3-4l5.9-2.9l1.2-0.7l-2,5.8l2.7-0.2l5.9,7.3l5.9-7.3   l2.7,0.2l-1.9-5.7c0.3,0.2,0.7,0.4,1,0.6l6.1,3c1.6,0.8,2.7,2.3,3,4l0.3,1.6c-0.4,0.4-0.8,0.9-1.2,1.3   C56.9,75.1,42.4,74.9,33.6,65.9z"></path></g></svg>