<svg xmlns="http://www.w3.org/2000/svg" xmlns:xlink="http://www.w3.org/1999/xlink" viewBox="0 0 98 100" style="background-color:#ffffff00;" version="1.1" xml:space="preserve" x="0px" y="0px"><g><path style="fill:white;" d="M 74.806 58.9254 C 69.8605 58.9254 65.3761 60.8965 62.0947 64.0809 L 41.1558 51.0607 C 41.2936 50.1654 41.3881 49.2563 41.3881 48.3232 C 41.3881 47.7037 41.356 47.091 41.2945 46.487 L 60.6907 36.4682 C 63.9114 39.3226 68.1444 41.0746 72.7934 41.0746 C 82.8265 41.0746 90.9875 32.9831 90.9875 23.0373 C 90.9875 13.0915 82.8265 5 72.7934 5 C 62.7604 5 54.5994 13.0915 54.5994 23.0373 C 54.5994 24.5496 54.8092 26.0112 55.1645 27.416 L 37.1195 36.738 C 33.7792 32.7984 28.7792 30.2859 23.194 30.2859 C 13.1619 30.2859 5 38.3774 5 48.3232 C 5 58.269 13.1619 66.3613 23.194 66.3613 C 28.4351 66.3613 33.1517 64.1393 36.4747 60.613 L 56.9777 73.3608 C 56.7384 74.5259 56.6119 75.7288 56.6119 76.9627 C 56.6119 86.9093 64.7729 95 74.806 95 C 84.839 95 93 86.9093 93 76.9627 C 93 67.0161 84.839 58.9254 74.806 58.9254 ZM 72.7934 15.5584 C 76.9537 15.5584 80.3373 18.9138 80.3373 23.0373 C 80.3373 27.1608 76.9537 30.5162 72.7934 30.5162 C 68.6332 30.5162 65.2496 27.1608 65.2496 23.0373 C 65.2496 18.9138 68.6332 15.5584 72.7934 15.5584 ZM 23.194 55.8029 C 19.0347 55.8029 15.6502 52.4476 15.6502 48.3232 C 15.6502 44.1997 19.0347 40.8443 23.194 40.8443 C 27.3534 40.8443 30.7379 44.1997 30.7379 48.3232 C 30.7379 52.4476 27.3534 55.8029 23.194 55.8029 ZM 74.806 84.4416 C 70.6457 84.4416 67.2621 81.0871 67.2621 76.9627 C 67.2621 72.8384 70.6457 69.4838 74.806 69.4838 C 78.9662 69.4838 82.3498 72.8384 82.3498 76.9627 C 82.3498 81.0871 78.9662 84.4416 74.806 84.4416 Z" fill="#000000"></path></g></svg>