<?xml version="1.0" encoding="utf-8"?><!DOCTYPE svg PUBLIC "-//W3C//DTD SVG 1.1//EN" "http://www.w3.org/Graphics/SVG/1.1/DTD/svg11.dtd"><svg version="1.1" xmlns="http://www.w3.org/2000/svg" xmlns:xlink="http://www.w3.org/1999/xlink" x="0px" y="0px" viewBox="0 0 94.798 100" enable-background="new 0 0 94.798 100" xml:space="preserve"><path  style="fill:white;" d="M78.323,94.936c0,2.802,2.276,5.062,5.068,5.062h6.339c2.798,0,5.068-2.262,5.068-5.062v-50.73
	c0-2.799-2.271-5.062-5.068-5.062h-6.339c-2.792,0-5.068,2.263-5.068,5.062V94.936z"></path><path  style="fill:white;" d="M53.805,74.271v20.665c0,2.801,2.275,5.062,5.084,5.062h6.324c2.791,0,5.066-2.263,5.066-5.062V74.271
	c0-2.801-2.275-5.076-5.066-5.076h-6.324C56.083,69.194,53.805,71.472,53.805,74.271z"></path><path  style="fill:white;" d="M29.295,81.883v13.055c0,2.801,2.263,5.062,5.069,5.062h6.33c2.792,0,5.069-2.262,5.069-5.062V81.883
	c0-2.799-2.277-5.09-5.069-5.09h-6.33C31.559,76.793,29.295,79.084,29.295,81.883z"></path><path style="fill:white;" d="M34.131,0C15.271,0,0,15.287,0,34.141c0,18.868,15.271,34.153,34.131,34.153
	c18.869,0,34.154-15.285,34.154-34.153C68.288,15.287,53,0,34.131,0z M34.134,59.669c-14.097,0-25.51-11.424-25.51-25.526
	c0-14.092,11.414-25.518,25.51-25.518v25.576l20.764,14.797C50.267,55.46,42.694,59.669,34.134,59.669z"></path></svg>