<?xml version="1.0" encoding="UTF-8"?>
<!DOCTYPE svg PUBLIC "-//W3C//DTD SVG 1.1//EN" "http://www.w3.org/Graphics/SVG/1.1/DTD/svg11.dtd">
<!-- Creator: CorelDRAW X6 -->
<svg xmlns="http://www.w3.org/2000/svg" xml:space="preserve" width="8.26778in" height="8in" version="1.1" style="shape-rendering:geometricPrecision; text-rendering:geometricPrecision; image-rendering:optimizeQuality; fill-rule:evenodd; clip-rule:evenodd"
viewBox="0 0 8268 11693"
 xmlns:xlink="http://www.w3.org/1999/xlink">
 <defs>
  <style type="text/css">
   <![CDATA[
    .str0 {stroke:#a2a2a2;stroke-width:13.8898}
    .fil0 {fill:#a2a2a2;fill-rule:nonzero}
    .fil1 {fill:#a2a2a2;fill-rule:nonzero}
   ]]>
  </style>
 </defs>
 <g id="Capa_x0020_1">
  <metadata id="CorelCorpID_0Corel-Layer"/>
  <g id="_246667008">
   <polygon class="fil0 str0" points="1499,5099 1786,6246 2073,6246 2295,5462 2503,6246 2806,6246 3095,5091 2805,5099 2644,5939 2412,5099 2163,5091 1956,5953 1774,5099 "/>
   <path class="fil0 str0" d="M3704 5046c-317,0 -574,276 -574,616 0,340 257,616 574,616 317,0 574,-276 574,-616 0,-340 -257,-616 -574,-616zm2 978l0 0c-167,0 -303,-162 -303,-362 0,-200 136,-362 303,-362 167,0 303,162 303,362 0,200 -136,362 -303,362z"/>
   <polygon class="fil0 str0" points="4468,5091 4727,5091 4727,5556 5176,5091 5519,5091 5102,5514 5537,6227 5218,6227 4907,5718 4731,5903 4736,6227 4468,6227 "/>
   <polygon class="fil1" points="5718,5091 6495,5091 6731,4347 6981,5091 7741,5091 7120,5537 7361,6278 6729,5846 6111,6278 6347,5546 "/>
  </g>
 </g>
</svg>
